/* XPM */
static char * jack_xpm[] = {
"48 48 221 2",
"  	c #0D0D0D",
". 	c #454545",
"+ 	c #4A4A4A",
"@ 	c #494949",
"# 	c #323232",
"$ 	c #464646",
"% 	c #4E4E4E",
"& 	c #4D4D4D",
"* 	c #4F4F4F",
"= 	c #3F3F3F",
"- 	c #3B3B3B",
"; 	c #505050",
"> 	c #343434",
", 	c #373737",
"' 	c #434343",
") 	c #383838",
"! 	c #4C4C4C",
"~ 	c #232323",
"{ 	c #CDCDCD",
"] 	c #C7C7C7",
"^ 	c #C8C8C8",
"/ 	c #888888",
"( 	c #BEBEBE",
"_ 	c #D3D3D3",
": 	c #D1D1D1",
"< 	c #D7D7D7",
"[ 	c #AAAAAA",
"} 	c #9E9E9E",
"| 	c #D8D8D8",
"1 	c #C9C9C9",
"2 	c #8A8A8A",
"3 	c #D0D0D0",
"4 	c #D2D2D2",
"5 	c #959595",
"6 	c #B5B5B5",
"7 	c #D5D5D5",
"8 	c #8B8B8B",
"9 	c #9F9F9F",
"0 	c #BBBBBB",
"a 	c #969696",
"b 	c #CECECE",
"c 	c #929292",
"d 	c #BFBFBF",
"e 	c #C0C0C0",
"f 	c #C6C6C6",
"g 	c #898989",
"h 	c #A9A9A9",
"i 	c #D4D4D4",
"j 	c #CFCFCF",
"k 	c #8C8C8C",
"l 	c #CCCCCC",
"m 	c #B4B4B4",
"n 	c #B7B7B7",
"o 	c #949494",
"p 	c #C5C5C5",
"q 	c #9B9B9B",
"r 	c #484848",
"s 	c #C1C1C1",
"t 	c #C4C4C4",
"u 	c #CBCBCB",
"v 	c #909090",
"w 	c #C3C3C3",
"x 	c #D9D9D9",
"y 	c #DCDCDC",
"z 	c #ABABAB",
"A 	c #DDDDDD",
"B 	c #999999",
"C 	c #D6D6D6",
"D 	c #A2A2A2",
"E 	c #DADADA",
"F 	c #9A9A9A",
"G 	c #C2C2C2",
"H 	c #CACACA",
"I 	c #E5E5E5",
"J 	c #E3E3E3",
"K 	c #E8E8E8",
"L 	c #BDBDBD",
"M 	c #E9E9E9",
"N 	c #E4E4E4",
"O 	c #DEDEDE",
"P 	c #ACACAC",
"Q 	c #EDEDED",
"R 	c #EFEFEF",
"S 	c #F4F4F4",
"T 	c #F2F2F2",
"U 	c #EEEEEE",
"V 	c #ADADAD",
"W 	c #BCBCBC",
"X 	c #E2E2E2",
"Y 	c #E1E1E1",
"Z 	c #A3A3A3",
"` 	c #333333",
" .	c #9C9C9C",
"..	c #7E7E7E",
"+.	c #AEAEAE",
"@.	c #A5A5A5",
"#.	c #A0A0A0",
"$.	c #8D8D8D",
"%.	c #727272",
"&.	c #7F7F7F",
"*.	c #A1A1A1",
"=.	c #7D7D7D",
"-.	c #636363",
";.	c #B0B0B0",
">.	c #F1F1F1",
",.	c #F0F0F0",
"'.	c #F3F3F3",
").	c #ECECEC",
"!.	c #101010",
"~.	c #000000",
"{.	c #0C0C0C",
"].	c #AFAFAF",
"^.	c #919191",
"/.	c #FFFFFF",
"(.	c #3A3A3A",
"_.	c #363636",
":.	c #030303",
"<.	c #010101",
"[.	c #050505",
"}.	c #080808",
"|.	c #090909",
"1.	c #0A0A0A",
"2.	c #040404",
"3.	c #2A2A2A",
"4.	c #353535",
"5.	c #393939",
"6.	c #939393",
"7.	c #4B4B4B",
"8.	c #E6E6E6",
"9.	c #0B0B0B",
"0.	c #0E0E0E",
"a.	c #0F0F0F",
"b.	c #111111",
"c.	c #DBDBDB",
"d.	c #9D9D9D",
"e.	c #E7E7E7",
"f.	c #797979",
"g.	c #020202",
"h.	c #121212",
"i.	c #141414",
"j.	c #151515",
"k.	c #686868",
"l.	c #070707",
"m.	c #131313",
"n.	c #161616",
"o.	c #171717",
"p.	c #181818",
"q.	c #191919",
"r.	c #979797",
"s.	c #B2B2B2",
"t.	c #707070",
"u.	c #3D3D3D",
"v.	c #B3B3B3",
"w.	c #787878",
"x.	c #1A1A1A",
"y.	c #1B1B1B",
"z.	c #1C1C1C",
"A.	c #7A7A7A",
"B.	c #E0E0E0",
"C.	c #2F2F2F",
"D.	c #1D1D1D",
"E.	c #303030",
"F.	c #A6A6A6",
"G.	c #F9F9F9",
"H.	c #404040",
"I.	c #747474",
"J.	c #F6F6F6",
"K.	c #B9B9B9",
"L.	c #DFDFDF",
"M.	c #414141",
"N.	c #B1B1B1",
"O.	c #F8F8F8",
"P.	c #FCFCFC",
"Q.	c #FBFBFB",
"R.	c #B6B6B6",
"S.	c #848484",
"T.	c #A4A4A4",
"U.	c #EAEAEA",
"V.	c #A7A7A7",
"W.	c #989898",
"X.	c #F5F5F5",
"Y.	c #FEFEFE",
"Z.	c #FDFDFD",
"`.	c #FAFAFA",
" +	c #EBEBEB",
".+	c #292929",
"++	c #262626",
"@+	c #F7F7F7",
"#+	c #BABABA",
"$+	c #272727",
"%+	c #B8B8B8",
"&+	c #8F8F8F",
"*+	c #5F5F5F",
"=+	c #282828",
"-+	c #6D6D6D",
";+	c #444444",
">+	c #242424",
",+	c #7C7C7C",
"'+	c #1F1F1F",
")+	c #212121",
"!+	c #595959",
"~+	c #717171",
"{+	c #8E8E8E",
"]+	c #626262",
"^+	c #1E1E1E",
"/+	c #777777",
"(+	c #5B5B5B",
"_+	c #606060",
":+	c #565656",
"<+	c #A8A8A8",
"[+	c #575757",
"}+	c #424242",
"|+	c #757575",
"1+	c #646464",
"2+	c #868686",
"3+	c #555555",
"4+	c #5C5C5C",
"5+	c #5A5A5A",
"6+	c #616161",
"7+	c #515151",
"8+	c #5D5D5D",
"  . + @ + # $ % & * = - ; & % + > & % & * , ' * & * ' , * & % & > + % & ; - = * & % . ) ! + + ~ ",
"' { ] ^ { / ( _ : < [ } | : _ 1 2 3 4 : < 5 6 7 : 7 6 5 < : 4 3 8 1 _ : | 9 [ < 3 4 0 a { ^ b c ",
"@ ] d e f g 0 3 { _ h 9 i { j f k l b { _ a m : { : m a _ { b l k f j { i 9 h _ { b n o f e p q ",
"r ^ s t u v w x < y 6 z A < | 3 B C < C y D ( E C E d D y C < C B 3 | < A z 6 y C C ( F 1 G f B ",
"@ l f H _ q j I J K p L M J N O P J Q R S d | T U T | d S U Q N V O N J M W f K X Y 1 Z 3 ^ H q ",
"` k 8 c  ...+.t t ^ P @.l ] ^ w F f #.8 $.%.&.8 g 8 &.%.$.2 B t F w ^ ] l @.P ^ w L *.=.a $.$.-.",
"$ s d f 4 ;.O >.,.'.A y T R ,.)._ 7 !.~.~.~.~.~.~.~.~.~.~.~.{.s : ).,.R T y O '.,.)._ ].l s e ^.",
"! 4 j < J w >././././.F (., ) ) _.# :.<.[.}.|.1.1.1.|.}.2.<.<.3.4.) ) , 5.6././././.K s y : : 9 ",
"7.3 b 7 X p 8.u f t f - ~.~.~.~.~.~.2.|.9.0.a.b.!.b.a.0.9.}.:.~.~.~.~.~.~.# L t f 1 E w c.j j d.",
"% < 7 y e.7 f.[.:.g.:.<.~.~.~.~.~.2.|.  !.h.i.j.j.j.i.h.a.{.}.:.~.~.~.~.~.~.g.g.:.2.k.u X C C Z ",
"5.} 9 [ 0 ].! ~.~.~.~.~.~.~.~.~.g.l.9.a.m.n.o.p.q.q.o.j.m.a.9.l.g.~.~.~.~.~.~.~.~.~.> r.s.D #.t.",
"u.h h v.t m w.a.  0.0.2.~.~.~.~.2.|.0.b.j.p.x.y.z.y.x.p.j.b.  }.:.~.~.~.~.[.!.0.0.0.; F W P [ A.",
"& C i E e.1 B.+.F d.} C.~.~.~.~.~.g.0.m.n.q.y.D.D.D.z.q.n.h.  <.~.~.~.~.~.E.5 } F B F.L X i 7 D ",
"7.3 b 7 X w U G.'.S ,.9 H.) 5.5.5.) b.h.n.x.z.D.D.D.z.q.n.!.h.(.) 5.5.5.5.I.C J.>.U A e c.j j d.",
"& i 4 x I f ,./././.G.U i t p t L ;.q.0.n.q.z.D.D.D.z.q.n.0.n.B K.p p p f ] ,./././.e.w L._ _ *.",
"M.6 m L { N.B.J.O.G.U ).P.G.G.O.Q | p.  j.p.y.z.z.z.x.p.i.  m.[ 8.G.G.G.Q.Q U G.J.Q _ P w R.6 S.",
"4.5 a *.v. .b M >.>.8.J T >.>.R I j j.9.i.n.x.y.y.y.q.n.m.9.!.T.O ,.>.>.T J 8.T U.A d o V.W.r.k.",
"& C i c.e.] T /././.J.'././././.X.B.m.l.b.i.o.p.q.p.o.i.b.l.!.s.U /./././.'.J././.Y.K p Y 7 7 D ",
"7.3 b 7 X w U /././.X.T /././.Z.,.`.; ~.9.b.i.n.n.n.i.b.1.~.= p Q Y./././.T X./.Y.`.J e c.j j d.",
"! 4 3 C J t R /././.X.T /././.Z.U /.: 5.{.a.b.m.m.m.!.a.h.(.r.X R Z./././.T X././.Q.N s y 3 : 9 ",
"r 1 ] j A (  +Q.Z.Z.'.,.Z.Z.Z.Q. +Z.P.3 F .+l.a.a.a.l.++2 +.| `. +`.Z.Z.Z.,.'.Z.Q.@+L.#+7 1 ^ a ",
"# 8 k W.z 5 1 I U R J B.R Q Q  +c.Q U >.I 4.~.9.9.9.<.$+#+M R U E  +Q Q R B.J ,.8.C %+k } &+k *+",
"7.j { 7 X G U Y.Y.Y.S >.Y.Y.Y.P.Q Z.Y./.Z.5.~.l.l.l.~..+: /./.Z.).P.Y.Y.Y.>.S Y.Y.`.J d c.b b q ",
"7.: j C J t U /././.X.T /././.Z.Q Y././.P.) ~.g.g.g.~.=+j /./.Y.Q P./././.T X./.Y.`.J s y 3 3 } ",
"7.3 b 7 X w U /././.X.T /././.Z.Q Y././.P.) ~.~.~.~.~.=+j /./.Y.Q P./././.T X./.Y.`.J e c.j j d.",
"& 7 _ E 8.f T /././.J.'./././.Y.U /././.Y.) ~.~.~.~.~.=+3 /././.U Y./././.'.J././.Z.e.t L.i i D ",
", q  .V.%+#.:  +'.'.e.N '.T T ,.L.>.T S R _.~.~.~.~.~.++p S '.>.L.,.T T '.N e.S ).L.w B V 9 d.-+",
";+L W t 4 R.J @+`.Q.,.Q Q.`.`.O.K G.`.P.@+, ~.~.~.~.~.$+u P.Q.G.K O.`.`.Q.Q ,.Q.@+R < s.H ( L k ",
"! _ : | N p ,./././.J.'./././.Y.U /././.P.E.~.~.~.~.~.>+j /././.U Z./././.'.J././.P.I G O 4 4 #.",
"7.3 b 7 X w U /././.X.T /././.Z.Q Y./././.,+'+~.~.g.)+!+i /./.Y.Q P./././.T X./.Y.`.J e c.j j d.",
"& C _ E e.] >./././.J.'./././.Y.U /./././.).} 2.~.[.S.e >./././.U Z./././.'.J././.Z.e.t B.7 7 D ",
"u.h h m t [ x ,.J.J. +K J.X.X.'.J S X.X.J.,.d [.~.:.^.N O.X.X.X.J '.X.X.J.K  +@+>.e.l Z #+z [ A.",
"5.} 9 h 0 D i ).T T e.N '.T T R B.>.T T '.Q W [.~.:.^.X '.T T >.B.R T T T N e.'.).Y p q ;.*.#.~+",
"% < 7 y e.] './././.@+S /./././.R /./././.P.] [.~.:.F >././././.R Y./././.'.@+/./.Y.K p Y C C Z ",
"7.3 b 7 X w U /././.X.T /././.Z.Q Y./././.`.f [.~.:.B R /././.Y.Q P./././.T X./.Y.`.J e c.j j d.",
"! _ : | N p R /././.J.'./././.Y.U /./././.Q.f [.~.:.B ,././././.U Z./././.'.J././.Q.I G A 4 4 #.",
". d ( ] 7 %+8.G.Q.Q.,.Q Q.Q.Q.G.M G.t V /.J.w [.~.:.a ).Y.9 w G.M G.Q.Q.Q.Q ,.Q.G.'.E m l e d {+",
"` {+&+F V r.u e.R ,.N Y ,.U U ).O  +- |.B.Q %+[.~.:.$.N | ~., U.L.).U U ,.Y N ,.K x 0 &+*.c v ]+",
"! i : x I f >./././.J.'././././.U /.O ^+/+/.t g.~.<.W.Y.&.$+c./.Q /./././.'.J././.Z.8.w O 4 4 #.",
"7.3 b 7 X w U /././.J.'././././.`././.y ' j A 0.~.a.z ^ + N /./.`././././.'.J./.Y.`.J e c.j j d.",
"7.: b 7 Y G U /././.,. +/./.2 (+Z R /./.A o Z._+~.7.p 6.E /./.,.F.!+k /./. +,./.Y.`.J e c.3 j } ",
"+ { H : y n 8.O.O.Q.N O Y.U.q.~.~.m.:+<+Y { >.W m.$.4 3 Y T.[+j.~.~.i.e.Y.O N P.@+'.c.n < l l q ",
"C.S.S.2 o w.F.W L s T.d.f D % % 5.@ }+& -.|+].K.t.o z w.1+! }+@ (.& % #.f d.T.s 0 6 F /+&+2+2+(+",
". e 0 d ] c f c.E L.0 v.L.A M J +.K U.I e.V t O b 4 p V M e.U.K +.X M A L.v.W L.x < d B p W ( ^.",
"@ ^ G t u &+G < 7 c.v.h y 7 < j r.7 < 7 c.*.L x C E L *.y C < 7 r.j < C y h v.c.7 7 ( F H G f F ",
"@ f L d p 2+%+{ u : V. .4 u { t g H l u : 6.N.j u j N.6.: u l H 2 t { u 4  .V.: u l 6 c p ( w F ",
";+3 ^ ^ { / L _ 3 C <+d.< 3 4 ^ g j : 3 C o m i 3 i m 6.C 3 : j g ^ 4 3 < } h C 3 : #+5 { ^ j o ",
"!.3+4+5+(+(.:+]+_+-.7.. -._+6+(+- *+_+_+-.H.; ]+_+]+7+H.-._+_+*+- (+6+_+-.. 7.-._+6+3+}+_+8+5+E."};
